<?xml version="1.0" encoding="utf-8"?>
<!-- Generator: Adobe Illustrator 21.0.2, SVG Export Plug-In . SVG Version: 6.00 Build 0)  -->
<svg version="1.1" id="Layer_1" xmlns="http://www.w3.org/2000/svg" xmlns:xlink="http://www.w3.org/1999/xlink" x="0px" y="0px"
	 viewBox="0 0 372 112.5" style="enable-background:new 0 0 372 112.5;" xml:space="preserve">
<style type="text/css">
	.st0{fill:#54851F;}
	.st1{fill:none;stroke:#54851F;stroke-width:2.8;stroke-miterlimit:21.4272;}
	.st2{fill:#FFFFFF;}
	.st3{fill:none;stroke:#54851F;stroke-width:3.2148;}
	.st4{fill:#A3CC33;}
</style>
<polygon class="st0" points="344.2,20.6 330.9,35.7 335.5,41.8 346.3,28.9 346.3,70.6 354.1,70.6 354.1,20.6 "/>
<g>
	<path class="st1" d="M78.7,38.2H64.6c0-2-0.5-3.4-1.5-4.2s-2.8-1.2-5.4-1.2H42.1c-3.9,0-6.4,0.7-7.5,2.1c-1.1,1.4-1.6,4-1.6,7.8
		v4.9c0,4.4,0.6,7.3,1.8,8.5c1.2,1.3,3.7,1.9,7.3,1.9h15.2c2.8,0,4.8-0.4,5.9-1.2s1.7-2,1.7-3.7v-1.3H47.1v-9.7h32.1v13.4
		c0,5.4-1.4,9-4.1,10.9s-8.2,2.9-16.6,2.9h-20c-7.1,0-12.2-1.3-15.4-3.8c-3.2-2.6-4.8-6.9-4.8-12.9V38.8c0-6.2,1.5-10.7,4.6-13.2
		c3.1-2.6,8.3-3.9,15.6-3.9h21.6c6.7,0,11.5,1.1,14.4,3.2c2.8,2.1,4.3,5.9,4.3,11.5v1.8H78.7z"/>
	<path class="st1" d="M87.7,68.8V22.1h42.5c4.8,0,8.4,0.9,10.7,2.8c2.5,2.1,3.8,5.7,3.8,10.8V39c0,4-0.8,6.9-2.4,8.6
		c-1,1.1-2.9,2-5.7,2.9c2.5,0.7,4.3,1.4,5.2,2.3c1.7,1.6,2.6,4.3,2.6,8.1v8h-14.3v-5.3c0-2.6-0.4-4.4-1.2-5.4s-2.5-1.5-5.1-1.5H102
		v12.2L87.7,68.8L87.7,68.8z M101.9,33.7v11.4H125c2.2,0,3.7-0.4,4.5-1.1c0.8-0.7,1.3-2.3,1.3-4.6c0-2.2-0.4-3.7-1.2-4.5
		s-2.5-1.2-5.1-1.2H101.9z"/>
	<path class="st1" d="M154.3,68.8V22.1h50.9V33h-36.7v7.4h34.7v9.7h-34.7v7.5H206v11.2H154.3z"/>
	<path class="st1" d="M214.7,68.8V22.1h50.9V33H229v7.4h34.7v9.7H229v7.5h37.5v11.2H214.7z"/>
	<path class="st1" d="M275,22.1h22.1l27.2,34.1V22.1h14.3v46.7h-22.1l-27.2-34.1v34.1H275V22.1z"/>
</g>
<path class="st0" d="M78.7,38.2H64.6c0-2-0.5-3.4-1.5-4.2s-2.8-1.2-5.4-1.2H42.1c-3.9,0-6.4,0.7-7.5,2.1c-1.1,1.4-1.6,4-1.6,7.8v4.9
	c0,4.4,0.6,7.3,1.8,8.5c1.2,1.3,3.7,1.9,7.3,1.9h15.2c2.8,0,4.8-0.4,5.9-1.2s1.7-2,1.7-3.7v-1.3H47.1v-9.7h32.1v13.4
	c0,5.4-1.4,9-4.1,10.9s-8.2,2.9-16.6,2.9h-20c-7.1,0-12.2-1.3-15.4-3.8c-3.2-2.6-4.8-6.9-4.8-12.9V38.8c0-6.2,1.5-10.7,4.6-13.2
	c3.1-2.6,8.3-3.9,15.6-3.9h21.6c6.7,0,11.5,1.1,14.4,3.2c2.8,2.1,4.3,5.9,4.3,11.5v1.8H78.7z"/>
<path class="st0" d="M87.7,68.8V22.1h42.5c4.8,0,8.4,0.9,10.7,2.8c2.5,2.1,3.8,5.7,3.8,10.8V39c0,4-0.8,6.9-2.4,8.6
	c-1,1.1-2.9,2-5.7,2.9c2.5,0.7,4.3,1.4,5.2,2.3c1.7,1.6,2.6,4.3,2.6,8.1v8h-14.3v-5.3c0-2.6-0.4-4.4-1.2-5.4s-2.5-1.5-5.1-1.5H102
	v12.2L87.7,68.8L87.7,68.8z M101.9,33.7v11.4H125c2.2,0,3.7-0.4,4.5-1.1c0.8-0.7,1.3-2.3,1.3-4.6c0-2.2-0.4-3.7-1.2-4.5
	s-2.5-1.2-5.1-1.2H101.9z"/>
<path class="st0" d="M154.3,68.8V22.1h50.9V33h-36.7v7.4h34.7v9.7h-34.7v7.5H206v11.2H154.3z"/>
<path class="st0" d="M214.7,68.8V22.1h50.9V33H229v7.4h34.7v9.7H229v7.5h37.5v11.2H214.7z"/>
<path class="st0" d="M275,22.1h22.1l27.2,34.1V22.1h14.3v46.7h-22.1l-27.2-34.1v34.1H275V22.1z"/>
<polygon class="st2" points="337.5,20.5 324.1,35.6 328.8,41.8 339.6,28.8 339.6,70.8 347.4,70.8 347.4,20.5 "/>
<polygon class="st0" points="4.9,6.7 4.9,18.6 17,18.6 17,6.7 "/>
<polygon class="st2" points="9.1,10.7 9.1,34.6 31.3,34.6 31.3,10.7 "/>
<polygon class="st3" points="14.7,17.1 14.7,28.3 25.7,28.3 25.7,17.1 "/>
<g>
	<path class="st4" d="M98.2,80.1v20.4h-4.7V80.1h-7.1V76h19.1v4.2L98.2,80.1L98.2,80.1z"/>
	<path class="st4" d="M112.1,79.9v6.3h11.5v3.4h-11.5v6.9h12.2v3.9h-16.9V76h16.8v3.9H112.1z"/>
	<path class="st4" d="M142.9,91.8h4.7v0.8c0,3.4-0.6,5.6-1.9,6.6c-1.2,1-4,1.5-8.3,1.5c-4.8,0-7.8-0.8-8.9-2.4s-1.7-5.8-1.7-12.7
		c0-4.1,0.8-6.7,2.3-8s4.7-1.9,9.5-1.9c3.5,0,5.8,0.5,7,1.6c1.2,1,1.8,3.1,1.8,6.3v0.6h-4.7v-0.6c0-1.6-0.3-2.6-0.9-3.1
		c-0.6-0.4-2-0.7-4.1-0.7c-2.9,0-4.6,0.4-5.2,1.1c-0.6,0.7-0.9,2.8-0.9,6.3c0,4.7,0.3,7.5,0.8,8.3c0.5,0.9,2.2,1.3,5.1,1.3
		c2.3,0,3.8-0.2,4.5-0.7s1-1.5,1-3.2L142.9,91.8z"/>
	<path class="st4" d="M171.4,76v24.6h-4.7V89.9h-11.5v10.6h-4.7V76h4.7v10h11.5V76H171.4z"/>
	<path class="st4" d="M198.5,76v24.6h-7.9l-7-13.5c-0.3-0.7-0.9-1.8-1.6-3.5l-0.8-1.8l-0.8-1.8h-0.2l0.1,1.6l0.1,1.6v3.2v14.1h-4.7
		V76h7.9l6.4,12.4c0.6,1.1,1.2,2.4,2,4l0.9,2l0.9,2h0.2l-0.1-1.6l-0.1-1.6V90V76H198.5z"/>
	<path class="st4" d="M213,75.7c4.5,0,7.3,0.7,8.6,2.2s1.9,4.8,1.9,9.9c0,5.6-0.6,9.2-1.9,10.6s-4.4,2.2-9.4,2.2
		c-4.5,0-7.3-0.7-8.7-2.2c-1.3-1.4-2-4.6-2-9.5c0-5.9,0.6-9.5,1.9-11S208,75.7,213,75.7z M212.6,79.7c-3.1,0-5,0.4-5.5,1.2
		c-0.5,0.8-0.8,3.6-0.8,8.3c0,3.5,0.3,5.6,0.9,6.4c0.6,0.7,2.4,1.1,5.5,1.1c2.9,0,4.6-0.4,5.2-1.2c0.6-0.8,0.9-3.3,0.9-7.4
		s-0.3-6.5-0.8-7.3C217.4,80.1,215.7,79.7,212.6,79.7z"/>
	<path class="st4" d="M231.3,76v20.4h11.5v4.2h-16.2V76H231.3z"/>
	<path class="st4" d="M255.4,75.7c4.5,0,7.3,0.7,8.6,2.2c1.3,1.5,1.9,4.8,1.9,9.9c0,5.6-0.6,9.2-1.9,10.6s-4.4,2.2-9.4,2.2
		c-4.5,0-7.3-0.7-8.7-2.2c-1.3-1.4-2-4.6-2-9.5c0-5.9,0.6-9.5,1.9-11S250.4,75.7,255.4,75.7z M255.1,79.7c-3.1,0-5,0.4-5.5,1.2
		c-0.5,0.8-0.8,3.6-0.8,8.3c0,3.5,0.3,5.6,0.9,6.4c0.6,0.7,2.4,1.1,5.5,1.1c2.9,0,4.6-0.4,5.2-1.2c0.6-0.8,0.9-3.3,0.9-7.4
		s-0.3-6.5-0.8-7.3C259.9,80.1,258.1,79.7,255.1,79.7z"/>
	<path class="st4" d="M278.8,87.5h10.8l0.1,4.9c0,3.5-0.7,5.8-2,6.9c-1.3,1-4.3,1.5-8.9,1.5c-4.2,0-7.1-0.7-8.4-2.1
		s-2.1-4.2-2.1-8.4c0-5.4,0.3-8.8,0.8-10.2c0.7-1.7,1.7-2.9,3.1-3.5s3.8-0.9,7.1-0.9c4.4,0,7.2,0.5,8.5,1.4s1.9,3,1.9,6.2H285
		c-0.1-1.6-0.4-2.6-1.1-3c-0.6-0.4-2.2-0.6-4.6-0.6c-2.7,0-4.4,0.3-5.1,1s-1.1,2.2-1.1,4.7v2.5V91c0,2.4,0.4,4,1.1,4.6
		c0.7,0.7,2.4,1,5,1c2.5,0,4.2-0.3,4.8-0.8c0.7-0.6,1-1.9,1-4v-1h-6.2L278.8,87.5L278.8,87.5z"/>
	<path class="st4" d="M297.6,76v24.6h-4.7V76H297.6z"/>
	<path class="st4" d="M306.1,79.9v6.3h11.5v3.4h-11.5v6.9h12.2v3.9h-16.9V76h16.8v3.9H306.1z"/>
	<path class="st4" d="M340,83.1h-4.6c0-0.2,0-0.4,0-0.5c-0.1-1.4-0.4-2.2-0.9-2.6s-1.7-0.5-3.6-0.5c-2.2,0-3.6,0.2-4.3,0.6
		c-0.7,0.4-1,1.3-1,2.6c0,1.5,0.3,2.5,0.8,2.8c0.6,0.3,2.4,0.6,5.5,0.7c3.7,0.2,6,0.7,7.1,1.6c1.1,0.8,1.6,2.6,1.6,5.2
		c0,3.3-0.6,5.4-1.9,6.3s-4,1.4-8.3,1.4c-3.9,0-6.4-0.5-7.7-1.4c-1.3-0.9-1.9-2.8-1.9-5.7v-0.9h4.5v0.5c0,1.7,0.3,2.8,0.9,3.1
		c0.6,0.4,2.2,0.6,4.9,0.6c2.1,0,3.4-0.2,4-0.7c0.6-0.4,0.9-1.5,0.9-3.1c0-1.2-0.2-2-0.7-2.4c-0.4-0.4-1.4-0.6-2.8-0.7H330
		c-3.9-0.2-6.4-0.8-7.4-1.6c-1.1-0.9-1.6-2.7-1.6-5.5c0-2.9,0.7-4.8,2-5.7s3.9-1.4,7.8-1.4c3.7,0,6.2,0.4,7.5,1.3s1.9,2.6,1.9,5.1
		v0.9H340z"/>
</g>
<g>
	<path class="st0" d="M343.9,98.1h9.8v-5.5h2v7.8h-11.8V98.1z"/>
	<path class="st0" d="M345.9,88.7h9.8v2.2h-9.8v3.4h-2v-9.2h2V88.7z"/>
</g>
<g>
	<path class="st0" d="M355.7,86h-11.8v-5.8c0-1.6,0.4-2.8,1.1-3.5s2-1,3.8-1c2.9,0,4.8,0.3,5.7,0.8c0.8,0.5,1.3,1.7,1.3,3.6V86
		H355.7z M353.8,83.7v-3.2c0-1.1-0.2-1.8-0.7-2.1c-0.5-0.3-1.6-0.5-3.3-0.5c-1.7,0-2.8,0.1-3.3,0.4s-0.7,0.9-0.7,2v3.3L353.8,83.7
		L353.8,83.7z"/>
</g>
</svg>
